<svg xmlns="http://www.w3.org/2000/svg" viewBox="0 0 24 24" color="currentColor" fill="none">
    <path d="M11.9961 1.25C17.9331 1.25003 22.7461 6.06296 22.7461 12C22.7461 17.937 17.9331 22.75 11.9961 22.75C7.74021 22.7499 4.06272 20.2767 2.32129 16.6924C2.14048 16.32 2.29583 15.8706 2.66797 15.6895C3.04042 15.5085 3.48978 15.6638 3.67089 16.0361C5.1709 19.1237 8.33606 21.2499 11.9961 21.25C17.1047 21.25 21.2461 17.1086 21.2461 12C21.2461 6.89138 17.1047 2.75003 11.9961 2.75C8.33606 2.75014 5.1709 4.87629 3.67089 7.96387C3.48978 8.33618 3.04042 8.49149 2.66797 8.31055C2.29583 8.1294 2.14048 7.67998 2.32129 7.30762C4.06272 3.72332 7.74021 1.25014 11.9961 1.25ZM10.3926 7.55566C10.6382 7.22218 11.1069 7.15095 11.4404 7.39648H11.4424L11.4443 7.39844C11.4465 7.4001 11.4502 7.40332 11.4541 7.40625C11.4622 7.41224 11.4744 7.42053 11.4893 7.43164C11.5198 7.45437 11.5642 7.48803 11.6201 7.53027C11.7322 7.61491 11.8921 7.73679 12.083 7.88574C12.4642 8.18326 12.9755 8.59282 13.4883 9.03809C13.9976 9.48028 14.5264 9.97277 14.9336 10.4336C15.1363 10.6631 15.3249 10.9034 15.4668 11.1387C15.5962 11.3535 15.7461 11.6597 15.7461 12C15.746 12.3402 15.5962 12.6466 15.4668 12.8613C15.3249 13.0966 15.1363 13.337 14.9336 13.5664C14.5264 14.0272 13.9975 14.5198 13.4883 14.9619C12.9753 15.4073 12.4633 15.8167 12.082 16.1143C11.8912 16.2632 11.7321 16.3851 11.6201 16.4697C11.5642 16.512 11.5197 16.5457 11.4893 16.5684C11.4743 16.5795 11.4622 16.5878 11.4541 16.5938C11.4501 16.5967 11.4465 16.6 11.4443 16.6016L11.4424 16.6035H11.4404C11.107 16.8488 10.6382 16.7775 10.3926 16.4443C10.1471 16.1109 10.2184 15.6412 10.5518 15.3955L10.5537 15.3945L10.5928 15.3652C10.6208 15.3443 10.6626 15.3127 10.7158 15.2725C10.8225 15.1919 10.9764 15.0751 11.1602 14.9316C11.5287 14.644 12.0174 14.2515 12.5039 13.8291C12.9205 13.4674 13.3217 13.0919 13.6436 12.75H1.99609C1.58201 12.75 1.24631 12.414 1.24609 12C1.24611 11.5858 1.58189 11.25 1.99609 11.25H13.6436C13.3218 10.9082 12.9214 10.5326 12.5049 10.1709C12.0183 9.74839 11.5288 9.35607 11.1602 9.06836C10.9764 8.92493 10.8225 8.80811 10.7158 8.72754C10.6626 8.68735 10.6209 8.6557 10.5928 8.63477L10.5537 8.60547L10.5518 8.60449C10.2184 8.35895 10.1473 7.88916 10.3926 7.55566Z" fill="currentColor" />
</svg>