<svg xmlns="http://www.w3.org/2000/svg" viewBox="0 0 24 24" color="currentColor" fill="none">
    <defs />
    <path fill="currentColor" d="M1.25,12 C1.25,6.063 6.063,1.25 12,1.25 C17.937,1.25 22.75,6.063 22.75,12 C22.75,17.937 17.937,22.75 12,22.75 C6.063,22.75 1.25,17.937 1.25,12 Z M12,2.75 C6.891,2.75 2.75,6.891 2.75,12 C2.75,14.372 3.642,16.535 5.11,18.172 L5.409,17.647 C6.433,15.856 8.338,14.75 10.402,14.75 L13.599,14.75 C15.662,14.75 17.567,15.856 18.591,17.647 L18.89,18.171 C20.358,16.534 21.25,14.371 21.25,12 C21.25,6.891 17.109,2.75 12,2.75 Z M17.768,19.231 L17.288,18.391 C16.532,17.067 15.124,16.25 13.599,16.25 L10.402,16.25 C8.877,16.25 7.468,17.067 6.712,18.391 L6.232,19.232 C7.813,20.495 9.818,21.25 12,21.25 C14.182,21.25 16.187,20.495 17.768,19.231 Z M8.5,9.5 C8.5,7.567 10.067,6 12,6 C13.933,6 15.5,7.567 15.5,9.5 C15.5,11.433 13.933,13 12,13 C10.067,13 8.5,11.433 8.5,9.5 Z M12,7.5 C10.895,7.5 10,8.395 10,9.5 C10,10.605 10.895,11.5 12,11.5 C13.105,11.5 14,10.605 14,9.5 C14,8.395 13.105,7.5 12,7.5 Z" />
</svg>